<svg xmlns="http://www.w3.org/2000/svg" viewBox="0 0 960 90">
    <style>
        .label { font: bold 15px sans-serif; }
    </style>
    <rect x="0" y="0" width="30" height="30" fill="black" stroke="gray"/><rect x="30" y="0" width="30" height="30" fill="black" stroke="gray"/><rect x="60" y="0" width="30" height="30" fill="black" stroke="gray"/><line x1="45" y1="35" x2="45" y2="55" stroke="black" marker-end="url(#arrowhead)"/><rect x="30" y="60" width="30" height="30" fill="white" stroke="gray"/><text x="45" y="105" text-anchor="middle" class="label">0</text><rect x="120" y="0" width="30" height="30" fill="black" stroke="gray"/><rect x="150" y="0" width="30" height="30" fill="black" stroke="gray"/><rect x="180" y="0" width="30" height="30" fill="white" stroke="gray"/><line x1="165" y1="35" x2="165" y2="55" stroke="black" marker-end="url(#arrowhead)"/><rect x="150" y="60" width="30" height="30" fill="white" stroke="gray"/><text x="165" y="105" text-anchor="middle" class="label">0</text><rect x="240" y="0" width="30" height="30" fill="black" stroke="gray"/><rect x="270" y="0" width="30" height="30" fill="white" stroke="gray"/><rect x="300" y="0" width="30" height="30" fill="black" stroke="gray"/><line x1="285" y1="35" x2="285" y2="55" stroke="black" marker-end="url(#arrowhead)"/><rect x="270" y="60" width="30" height="30" fill="white" stroke="gray"/><text x="285" y="105" text-anchor="middle" class="label">0</text><rect x="360" y="0" width="30" height="30" fill="black" stroke="gray"/><rect x="390" y="0" width="30" height="30" fill="white" stroke="gray"/><rect x="420" y="0" width="30" height="30" fill="white" stroke="gray"/><line x1="405" y1="35" x2="405" y2="55" stroke="black" marker-end="url(#arrowhead)"/><rect x="390" y="60" width="30" height="30" fill="white" stroke="gray"/><text x="405" y="105" text-anchor="middle" class="label">0</text><rect x="480" y="0" width="30" height="30" fill="white" stroke="gray"/><rect x="510" y="0" width="30" height="30" fill="black" stroke="gray"/><rect x="540" y="0" width="30" height="30" fill="black" stroke="gray"/><line x1="525" y1="35" x2="525" y2="55" stroke="black" marker-end="url(#arrowhead)"/><rect x="510" y="60" width="30" height="30" fill="white" stroke="gray"/><text x="525" y="105" text-anchor="middle" class="label">0</text><rect x="600" y="0" width="30" height="30" fill="white" stroke="gray"/><rect x="630" y="0" width="30" height="30" fill="black" stroke="gray"/><rect x="660" y="0" width="30" height="30" fill="white" stroke="gray"/><line x1="645" y1="35" x2="645" y2="55" stroke="black" marker-end="url(#arrowhead)"/><rect x="630" y="60" width="30" height="30" fill="white" stroke="gray"/><text x="645" y="105" text-anchor="middle" class="label">0</text><rect x="720" y="0" width="30" height="30" fill="white" stroke="gray"/><rect x="750" y="0" width="30" height="30" fill="white" stroke="gray"/><rect x="780" y="0" width="30" height="30" fill="black" stroke="gray"/><line x1="765" y1="35" x2="765" y2="55" stroke="black" marker-end="url(#arrowhead)"/><rect x="750" y="60" width="30" height="30" fill="white" stroke="gray"/><text x="765" y="105" text-anchor="middle" class="label">0</text><rect x="840" y="0" width="30" height="30" fill="white" stroke="gray"/><rect x="870" y="0" width="30" height="30" fill="white" stroke="gray"/><rect x="900" y="0" width="30" height="30" fill="white" stroke="gray"/><line x1="885" y1="35" x2="885" y2="55" stroke="black" marker-end="url(#arrowhead)"/><rect x="870" y="60" width="30" height="30" fill="black" stroke="gray"/><text x="885" y="105" text-anchor="middle" class="label">1</text>
    <defs>
        <marker id="arrowhead" markerWidth="10" markerHeight="7" refX="9" refY="3.5" orient="auto">
            <polygon points="0 0, 10 3.5, 0 7" fill="black"/>
        </marker>
    </defs>
    </svg>